<?xml version="1.0" encoding="UTF-8"?>
<svg width="700px" height="700px" viewBox="0 0 700 700" version="1.1" xmlns="http://www.w3.org/2000/svg" xmlns:xlink="http://www.w3.org/1999/xlink">
    <title>moomin</title>
    <g id="moomin" stroke="none" stroke-width="1" fill="none" fill-rule="evenodd">
        <g id="moomin" transform="translate(-107.000000, -70.000000)">
            <path d="M730.900849,1012.5525 C670.591443,1027.04405 634.046968,1034.28983 621.267427,1034.28983 C621.267427,1028.84253 618.530806,1026.13185 618.530806,1020.71048 C604.821765,1015.26318 588.363133,1015.26318 577.390712,1001.68384 C571.917471,993.525857 563.681671,990.815176 560.94505,982.657194 C536.276557,958.209187 503.385234,947.340524 467.74432,950.051205 C437.589616,950.051205 415.657744,966.367169 396.462492,985.367874 C382.753451,998.973158 366.307789,1012.5525 358.097927,1028.84253 C352.611717,1039.71119 336.166055,1037.00051 325.193634,1034.28983 C319.720393,1034.28983 306.011352,1039.71119 303.274731,1031.57915 C297.788521,1004.39452 303.274731,971.8015 289.56569,950.064174 C270.370438,912.036824 248.438565,871.285822 240.215734,830.521851 C237.518023,818.712924 238.942194,825.552961 237.518023,814.244797 C226.551315,718.148459 264.936106,637.648478 311.536472,564.304457 L308.799851,561.593777 C264.949076,550.738083 218.335741,518.119125 204.639669,474.657443 C196.416838,447.485785 199.166429,414.892766 212.8625,393.15544 C232.044783,360.549451 267.685696,346.970107 300.57702,341.535776 C317.022682,336.101444 330.731724,322.5221 338.954555,306.219106 C360.886427,265.468105 382.80533,227.440754 410.223413,189.413403 C407.486792,159.518095 396.514371,126.925076 412.973003,97.042738 C412.973003,94.3190873 415.709623,94.3190873 418.446243,97.042738 C434.891905,110.622082 445.864326,126.925076 454.087157,143.228071 C456.823778,151.373083 462.309988,159.531065 465.046609,167.676078 C478.75565,164.965397 489.715102,164.965397 503.424143,164.965397 C508.897384,148.662402 517.133184,129.648727 528.105606,113.358702 C530.842226,107.924371 536.315467,102.490039 541.814647,105.20072 C560.996929,126.938046 555.523689,159.531065 558.260309,186.702723 C555.523689,197.571386 563.73355,205.716398 566.49611,216.585061 C574.705971,246.480369 578.114081,279.293595 586.349882,311.899584 C594.585683,368.95358 602.124054,425.787368 607.610264,482.841364 C618.530806,544.411427 628.404191,581.000931 640.488618,645.845369 C649.306534,685.184095 719.019817,1058.73955 730.900849,1012.5525 Z" id="路径" fill="#2B2B2D"></path>
            <path d="M679.42397,977.356409 C671.214109,996.383054 534.150429,761.582394 536.887049,780.59607 C512.218556,791.464733 487.550063,810.491378 465.618191,824.070722 C460.13198,826.781402 457.39536,829.518023 451.90915,829.518023 C460.13198,818.64936 471.091432,813.202059 482.063853,805.044076 C482.063853,802.333396 479.314263,802.333396 479.314263,802.333396 C465.605221,807.780697 451.90915,815.912739 435.450518,815.912739 C446.422939,805.044076 460.119011,799.622715 473.828052,791.464733 C473.828052,788.754052 473.828052,788.754052 471.091432,786.043371 C457.38239,794.175413 440.936728,799.622715 427.227687,802.333396 L424.491067,802.333396 C427.227687,796.912034 432.713898,794.175413 438.200108,791.464733 C446.422939,783.33269 457.39536,780.59607 465.618191,775.174708 C465.618191,772.438088 462.881571,772.438088 462.881571,772.438088 C449.172529,777.885389 435.463488,783.33269 421.767416,783.33269 C432.739837,769.727407 446.435909,761.569425 462.881571,756.148063 C465.618191,756.148063 468.367781,756.148063 471.104402,753.437382 C468.367781,750.700762 460.13198,753.437382 454.65874,750.700762 C449.172529,747.990081 438.200108,745.2794 438.200108,737.121418 C440.936728,734.410737 449.172529,737.121418 454.65874,737.121418 C476.577642,739.832099 501.259105,737.121418 514.968146,718.094773 C531.413808,701.804748 545.12285,680.067422 556.082301,658.343066 L553.345681,658.343066 C539.6107,685.501754 517.691797,718.094773 490.286684,731.700056 C471.104402,737.121418 454.64577,728.963436 435.450518,731.700056 C432.713898,734.410737 432.713898,739.832099 432.713898,742.568719 C438.187138,750.700762 446.422939,750.700762 454.64577,756.148063 C440.936728,761.569425 427.227687,769.727407 416.268236,780.59607 L416.268236,786.043371 L419.004856,788.754052 L440.936728,783.33269 C432.713898,788.754052 424.491067,794.175413 419.004856,802.333396 C419.004856,805.044076 421.741476,807.780697 424.491067,807.780697 C432.713898,807.780697 438.200108,805.044076 446.422939,802.333396 C443.686319,807.780697 432.713898,810.491378 429.964307,818.64936 C432.713898,821.360041 435.450518,821.360041 438.187138,821.360041 C446.409969,821.360041 454.64577,815.912739 460.119011,813.202059 C457.38239,818.64936 446.409969,824.070722 446.409969,832.228704 C449.14659,834.939385 451.89618,834.939385 454.6328,832.228704 C476.551703,826.781402 514.968146,796.912034 534.150429,786.043371 C542.37326,780.59607 605.419287,959.903069 616.365768,997.956359 L619.128328,1011.5357 C608.155907,1008.82502 594.459835,1006.11434 586.224035,1000.66704 C572.514993,978.929714 550.583121,965.35037 528.664218,951.771027 C493.010334,938.191683 443.673349,938.191683 413.531615,962.63969 C394.349333,981.640395 366.93125,997.956359 355.971799,1022.3914 C353.235178,1030.54938 344.999378,1027.8387 339.526137,1027.8387 C328.553716,1027.8387 317.594264,1030.54938 306.634813,1027.8387 C303.898193,1016.97003 306.634813,1006.10137 303.898193,995.232709 C303.898193,976.206064 301.161572,959.890099 290.189151,943.613044 C287.452531,935.455062 281.96632,924.586399 279.21673,913.717736 C265.507689,886.559049 251.798647,856.67671 246.325406,824.070722 C249.062027,824.070722 251.798647,821.360041 249.062027,821.360041 L243.575816,815.912739 C229.866775,718.107742 270.993899,636.61871 317.594264,560.551039 C399.835544,574.130382 473.841022,544.248044 525.914628,479.049036 L536.887049,460.035361 C536.887049,460.035361 536.887049,457.32468 534.150429,457.32468 C525.914628,470.904024 520.441387,484.496337 506.745315,492.64135 C454.65874,549.695345 377.903671,571.432671 303.898193,552.406026 C279.2297,544.261014 251.811617,533.392351 232.629335,508.944344 C205.211252,481.772687 196.988421,435.587354 213.447052,400.270684 C229.892714,362.230364 268.270249,348.65102 301.161572,340.506008 C317.607234,335.084646 331.316276,326.926664 339.539107,313.33435 C361.470979,272.583349 380.653261,231.832348 408.071344,193.804997 C413.557555,191.094316 416.294175,185.659985 421.780386,182.936334 L421.780386,180.225653 C419.043765,177.514972 416.294175,180.225653 413.557555,180.225653 C410.807965,153.053996 402.585134,123.171657 416.294175,96 C424.517006,98.7236506 430.003217,109.592314 435.476457,117.737326 C449.185499,131.31667 454.671709,147.619664 460.14495,163.922659 C457.40833,166.646309 451.922119,163.922659 451.922119,169.35699 L451.922119,172.080641 C468.367781,166.646309 487.563033,163.922659 504.008695,166.646309 C504.008695,172.080641 501.272075,174.791322 504.008695,180.225653 L506.745315,177.514972 C509.481936,153.053996 520.454357,131.32964 534.150429,112.315964 C534.150429,109.605283 536.887049,104.170952 542.386229,106.881633 C558.831891,125.895308 553.35865,155.790616 556.095271,182.949304 C556.095271,191.094316 553.35865,199.252298 553.35865,207.397311 L556.095271,207.397311 C558.831891,207.397311 558.831891,204.68663 558.831891,201.962979 C569.804312,237.279649 575.277553,272.596319 583.500384,307.912988 C591.710245,378.546328 602.682666,451.903318 610.905497,522.536658 C624.614539,604.03866 664.454468,745.800302 661.691908,835.447317 C658.955288,840.868679 687.896666,854.640662 679.42397,977.356409 Z" id="路径" fill="#D2E7F3"></path>
            <path d="M558.818921,758.871713 L558.818921,753.450352 C558.818921,750.713731 561.555542,750.713731 564.292162,753.450352 C564.292162,756.161033 561.555542,761.582394 558.818921,758.871713 Z M536.887049,191.068377 C536.887049,180.199714 536.887049,166.62037 534.150429,153.028056 C528.677188,161.186038 525.914628,172.054701 523.178008,180.199714 L520.441387,180.199714 C523.178008,169.331051 525.914628,155.751707 534.150429,147.593725 C536.887049,147.593725 536.887049,150.304406 539.623669,150.304406 C539.623669,163.896719 539.623669,177.489033 536.887049,191.068377 Z M498.509515,261.701716 C493.023304,261.701716 495.772894,256.267385 493.023304,250.833053 C490.286684,245.398722 482.063853,239.96439 473.841022,239.96439 C468.354811,239.96439 462.868601,242.688041 457.39536,248.122372 L454.65874,248.122372 C454.65874,242.688041 462.881571,239.96439 468.367781,237.253709 C476.590612,234.543028 484.813443,237.253709 490.299654,242.688041 C495.785864,248.122372 501.259105,256.267385 498.509515,261.701716 L498.509515,261.701716 Z M473.841022,351.361701 C465.618191,356.796032 454.65874,356.796032 446.422939,356.796032 C438.200108,354.085351 432.713898,343.216688 429.964307,335.071676 C427.227687,326.913694 429.964307,316.045031 435.450518,307.900019 C440.936728,297.044325 451.90915,291.597024 465.605221,291.597024 C476.564673,288.886343 482.063853,302.465687 484.787504,310.6107 C487.550063,326.900724 487.550063,343.203719 473.841022,351.361701 Z" id="形状" fill="#2B2B2D"></path>
            <path d="M482.076823,310.6107 C479.327233,307.900019 473.853992,307.900019 471.104402,307.900019 C462.881571,310.6107 454.65874,318.768682 454.65874,326.913694 C454.65874,335.071676 454.65874,343.216688 462.881571,345.940339 C465.618191,348.65102 468.367781,348.65102 471.104402,348.65102 C465.618191,354.085351 454.65874,354.085351 446.435909,351.361701 C438.213078,345.940339 432.726867,337.782357 432.726867,326.913694 C432.726867,318.768682 435.463488,307.900019 443.686319,302.465687 C451.90915,297.044325 462.868601,291.597024 471.104402,297.044325 C476.577642,299.742037 479.327233,305.176368 482.076823,310.6107 L482.076823,310.6107 Z" id="路径" fill="#FFFFFF"></path>
            <path d="M443.686319,163.896719 C438.200108,153.028056 435.463488,142.172363 427.240657,134.014381 C424.504036,147.593725 429.977277,161.186038 432.726867,172.054701 C429.977277,172.054701 429.977277,169.331051 429.977277,169.331051 C427.240657,155.751707 421.754446,144.883044 424.504036,131.3037 C424.504036,128.593019 427.240657,131.3037 429.977277,131.3037 C438.200108,142.172363 443.686319,153.028056 446.435909,163.896719 L443.686319,163.896719 L443.686319,163.896719 Z M421.754446,245.398722 C419.017826,242.688041 416.268236,239.96439 416.268236,237.253709 C410.782025,231.819378 402.559194,231.819378 397.085953,234.543028 C391.612713,234.543028 388.863122,242.688041 383.376912,245.398722 C383.376912,242.688041 386.113532,239.96439 388.863122,234.543028 C394.349333,231.832348 402.572164,229.108697 410.782025,231.832348 C416.268236,231.832348 421.754446,237.266679 421.754446,242.701011 L421.754446,245.398722 L421.754446,245.398722 Z M397.085953,345.927369 C391.612713,351.348731 377.903671,354.072382 369.68084,351.348731 C358.721389,345.927369 353.235178,332.335056 353.235178,321.466393 C350.498558,307.887049 358.721389,297.018386 369.68084,288.860404 C375.167051,286.149723 383.389882,283.439042 391.612713,286.149723 C402.572164,288.860404 408.058374,299.729067 410.794995,310.59773 C410.794995,321.466393 408.058374,335.058706 397.085953,345.927369 Z" id="形状" fill="#2B2B2D"></path>
            <path d="M405.308784,313.32138 C402.572164,310.6107 399.835544,305.176368 397.085953,302.452717 C391.612713,302.452717 386.126502,302.452717 383.376912,305.163398 C377.890701,310.59773 375.154081,316.032061 375.154081,321.466393 C375.154081,329.624375 375.154081,337.769387 383.376912,343.203719 C388.863122,343.203719 394.349333,343.203719 397.085953,340.493038 C391.612713,345.927369 380.640292,348.63805 372.417461,345.927369 C361.458009,343.203719 355.971799,332.335056 355.971799,321.466393 C355.971799,307.887049 366.93125,291.584054 380.640292,288.860404 C388.863122,286.149723 397.085953,291.571085 402.559194,297.018386 C405.308784,302.452717 408.058374,307.887049 405.308784,313.32138 L405.308784,313.32138 Z" id="路径" fill="#FFFFFF"></path>
        </g>
    </g>
</svg>