<svg xmlns="http://www.w3.org/2000/svg" width="48" height="48" fill="none" viewBox="0 0 48 48">
    <path fill="#FBE54D" d="M48 24C48 10.745 37.255 0 24 0S0 10.745 0 24s10.745 24 24 24 24-10.745 24-24z"/>
    <path fill="#E14572" d="M9.018 16.548c-.036-.283-.007-.57.084-.839.092-.27.243-.514.443-.715.2-.201.442-.354.71-.446.267-.092.551-.12.831-.085h2.106c.278-.035.56-.005.825.088.265.093.505.246.702.448.196.202.344.446.431.715.087.269.112.554.072.834v.341c0 .19-.038.493-.038.493h.075c.598-1.006 1.44-1.844 2.445-2.433 1.007-.59 2.144-.913 3.308-.94 1.127-.064 2.246.217 3.212.805.966.588 1.734 1.456 2.202 2.49h.076c.688-1.018 1.613-1.85 2.695-2.425 1.081-.575 2.286-.874 3.509-.87 3.534 0 6.28 1.932 6.28 7.316V31.9c.035.283.006.57-.085.84-.092.268-.243.513-.443.714-.2.202-.442.354-.71.446-.267.092-.551.121-.831.085h-2.37c-.28.036-.564.007-.831-.085-.267-.092-.51-.245-.71-.446-.2-.201-.35-.446-.442-.715-.09-.27-.12-.556-.084-.839v-9.476c0-1.44-.264-2.464-1.505-2.464-2.82 0-3.722 2.842-3.722 5.762V31.9c.035.283.006.57-.085.84-.091.268-.243.513-.442.714-.2.202-.443.354-.71.446-.267.092-.552.121-.832.085h-2.369c-.28.036-.565.007-.832-.085-.267-.092-.51-.245-.709-.446-.2-.201-.35-.446-.442-.715-.091-.27-.12-.556-.085-.839v-9.476c0-1.44-.263-2.464-1.504-2.464-2.972 0-3.722 3.07-3.722 5.762V31.9c.036.283.007.57-.084.84-.092.268-.243.513-.443.714-.2.202-.442.354-.71.446-.267.092-.551.121-.832.085h-2.368c-.28.036-.565.007-.832-.085-.268-.092-.51-.244-.71-.446-.2-.2-.351-.446-.443-.715-.091-.27-.12-.556-.084-.839l.003-15.352z"/>
</svg>
